<?xml version="1.0" encoding="UTF-8" standalone="no"?>
<svg
   version="1.1"
   width="24"
   height="24"
   viewBox="0 0 24 24"
   xml:space="preserve"
   id="svg1"
   sodipodi:docname="send-4008.svg"
   inkscape:version="1.3 (0e150ed, 2023-07-21)"
   xmlns:inkscape="http://www.inkscape.org/namespaces/inkscape"
   xmlns:sodipodi="http://sodipodi.sourceforge.net/DTD/sodipodi-0.dtd"
   xmlns="http://www.w3.org/2000/svg"
   xmlns:svg="http://www.w3.org/2000/svg"><sodipodi:namedview
   id="namedview1"
   pagecolor="#505050"
   bordercolor="#eeeeee"
   borderopacity="1"
   inkscape:showpageshadow="0"
   inkscape:pageopacity="0"
   inkscape:pagecheckerboard="0"
   inkscape:deskcolor="#505050"
   inkscape:zoom="27.5625"
   inkscape:cx="24.761905"
   inkscape:cy="24.108844"
   inkscape:window-width="3840"
   inkscape:window-height="2032"
   inkscape:window-x="0"
   inkscape:window-y="25"
   inkscape:window-maximized="1"
   inkscape:current-layer="g1" />&#10;&#10;<defs
   id="defs1">&#10;</defs>&#10;<g
   style="opacity:1;fill:none;fill-rule:nonzero;stroke:none;stroke-width:0;stroke-linecap:butt;stroke-linejoin:miter;stroke-miterlimit:10;stroke-dasharray:none"
   transform="matrix(2.81,0,0,2.81,1.4065934,1.4065934)"
   id="g1">&#10;	<path
   id="path4"
   style="opacity:1;fill:#000000;fill-rule:nonzero;stroke:none;stroke-width:0.0702248;stroke-linecap:butt;stroke-linejoin:miter;stroke-miterlimit:10;stroke-dasharray:none"
   d="m 6.7148621,0.60984451 c -0.0099,2.1071e-4 -0.019824,0.001192 -0.029725,0.002881 -0.00246,4.2134e-4 -0.00482,5.3347e-4 -0.00727,0.001024 -0.010815,0.002179 -0.021534,0.005147 -0.032069,0.009079 L 0.74643572,2.83654 c -0.0789327,0.029635 -0.1326124,0.1034073 -0.13647477,0.1876772 -0.003793,0.0842 0.0429899,0.1626367 0.11890293,0.1992941 L 3.1484592,4.3912097 4.3161089,6.8108052 c 0.035323,0.073104 0.1092769,0.1191955 0.1898248,0.1191955 0.00323,0 0.00639,-5.46e-5 0.00962,-1.967e-4 0.0842,-0.00385 0.158091,-0.057543 0.187726,-0.1364746 L 6.9170354,0.89402045 c 0.00391,-0.0104635 0.0068,-0.0210801 0.00898,-0.0318246 5.618e-4,-0.002879 7.474e-4,-0.005662 0.00118,-0.008542 0.00155,-0.00927 0.00249,-0.0186286 0.0028,-0.0279686 7.02e-5,-0.003863 7.02e-5,-0.007559 0,-0.0114217 -2.812e-4,-0.00941 -0.00118,-0.0186989 -0.00267,-0.0279686 -4.911e-4,-0.002881 -6.209e-4,-0.005662 -0.00124,-0.008542 -0.00236,-0.0115868 -0.00577,-0.0229955 -0.010107,-0.034021 -0.00124,-0.003229 -0.00292,-0.00626 -0.00428,-0.009421 -0.00372,-0.008357 -0.00794,-0.0163937 -0.012789,-0.0242588 -0.00198,-0.003229 -0.00391,-0.006483 -0.00608,-0.009713 -0.00716,-0.0103228 -0.014906,-0.0202272 -0.023963,-0.0292861 -0.00913,-0.009129 -0.01914,-0.0169282 -0.029532,-0.0241613 -0.00298,-0.002036 -0.00596,-0.003936 -0.00908,-0.005761 -0.00829,-0.005128 -0.016799,-0.009561 -0.025577,-0.0134232 -0.00274,-0.001192 -0.0053,-0.002583 -0.0081,-0.003707 -0.011306,-0.004427 -0.023011,-0.007912 -0.034948,-0.0102993 -0.00218,-4.2134e-4 -0.00441,-5.5481e-4 -0.00659,-9.7456e-4 -0.00997,-0.001689 -0.020003,-0.002669 -0.030116,-0.002881 -0.00337,-7.022e-5 -0.00666,-7.022e-5 -0.00996,0 z" />&#10;</g>&#10;</svg>
